<?xml version="1.0" standalone="no"?>
<!DOCTYPE svg PUBLIC "-//W3C//DTD SVG 20010904//EN"
 "http://www.w3.org/TR/2001/REC-SVG-20010904/DTD/svg10.dtd">
<svg version="1.0" xmlns="http://www.w3.org/2000/svg"
 width="500.000000pt" height="500.000000pt" viewBox="0 0 500.000000 500.000000"
 preserveAspectRatio="xMidYMid meet">
<metadata>
Created by potrace 1.14, written by Peter Selinger 2001-2017
</metadata>
<g transform="translate(0.000000,500.000000) scale(0.100000,-0.100000)"
fill="#000000" stroke="none">
<path d="M2095 4660 c-4 -6 -12 -7 -18 -4 -7 4 -9 4 -5 0 9 -11 -15 -35 -27
-28 -5 3 -4 -1 3 -10 11 -13 10 -16 -5 -14 -11 0 -18 -5 -17 -15 1 -9 -5 -16
-12 -16 -7 0 -11 4 -8 8 2 4 -5 7 -16 6 -11 -1 -20 -5 -20 -9 0 -5 -8 -5 -17
-1 -10 5 -31 8 -48 8 -24 0 -29 -4 -27 -19 3 -15 1 -16 -11 -5 -8 8 -12 19 -9
24 3 6 1 6 -4 2 -5 -5 -9 -12 -10 -15 -4 -32 -31 -56 -31 -27 0 8 4 12 9 9 4
-3 8 -1 8 3 0 5 -10 14 -22 22 -21 13 -22 13 -9 -2 15 -19 1 -23 -16 -6 -9 9
-10 6 -6 -10 5 -19 3 -20 -18 -13 -28 10 -59 5 -59 -9 0 -6 7 -6 19 0 19 11
31 5 31 -13 0 -6 -4 -5 -9 2 -7 11 -11 11 -24 -2 -13 -13 -16 -14 -21 -1 -4
11 -11 13 -29 6 -17 -7 -29 -6 -37 2 -10 10 -12 8 -6 -7 5 -14 2 -17 -9 -12
-8 3 -15 1 -15 -4 0 -5 -7 -7 -15 -4 -18 7 -19 -5 -4 -26 9 -13 10 -12 5 2 -3
12 -1 15 10 11 11 -4 12 -9 4 -19 -7 -7 -18 -10 -26 -7 -10 4 -12 0 -8 -11 3
-9 11 -13 17 -9 6 4 7 1 2 -6 -5 -9 -10 -10 -18 -2 -17 17 -27 13 -21 -6 5
-17 5 -17 -6 0 -6 9 -16 17 -22 17 -9 0 -9 -3 0 -12 7 -7 12 -16 12 -22 0 -5
-9 1 -20 14 l-20 23 0 -22 c0 -12 -4 -20 -9 -16 -5 3 -12 1 -16 -4 -3 -6 -12
-8 -20 -4 -10 3 -15 -1 -15 -13 0 -11 -5 -26 -11 -34 -9 -12 -10 -12 -5 3 4
12 2 17 -6 15 -6 -2 -12 -12 -14 -22 -4 -25 -11 -30 -18 -11 -4 11 -2 14 6 9
7 -4 8 -3 4 4 -9 15 -40 -4 -56 -33 -6 -11 -9 -13 -6 -3 6 20 -15 18 -38 -5
-13 -12 -14 -17 -4 -17 10 0 9 -3 -2 -10 -12 -8 -11 -10 5 -7 11 1 27 7 35 12
13 8 13 7 1 -8 -7 -9 -18 -14 -24 -10 -6 4 -8 0 -4 -11 4 -9 3 -15 -2 -11 -6
3 -15 -3 -21 -12 -11 -17 -11 -17 -6 0 3 9 1 17 -4 17 -6 0 -10 -8 -10 -17 0
-15 -2 -14 -15 3 -14 18 -15 18 -9 0 6 -15 4 -17 -16 -11 -20 6 -22 5 -16 -11
4 -10 4 -15 0 -11 -4 4 -14 1 -23 -6 -14 -11 -15 -10 -1 8 14 19 14 19 -2 6
-10 -7 -18 -17 -18 -21 0 -5 8 -11 18 -14 9 -2 0 -2 -20 1 -25 3 -38 1 -38 -6
0 -8 -6 -8 -19 1 -11 7 -17 17 -13 23 3 5 -2 4 -11 -4 -13 -11 -17 -11 -17 -1
0 8 -3 10 -7 6 -5 -4 1 -14 11 -22 23 -17 17 -18 -20 -4 -23 9 -25 9 -15 -4
10 -12 9 -21 -5 -45 -10 -16 -21 -28 -25 -25 -4 2 -11 -1 -15 -7 -4 -7 -3 -9
3 -6 5 3 17 -3 26 -14 18 -21 9 -27 -12 -6 -10 10 -11 8 -5 -7 5 -13 4 -17 -4
-12 -8 4 -10 2 -6 -7 3 -9 -3 -17 -18 -21 -13 -3 -33 -23 -46 -43 -13 -21 -21
-30 -18 -20 3 9 3 17 -1 17 -3 0 -12 -8 -20 -17 -8 -10 -12 -13 -9 -7 3 7 -1
14 -8 17 -10 4 -13 0 -11 -14 4 -20 3 -20 -19 -5 -22 14 -23 13 -22 -2 0 -9
-4 -16 -11 -15 -7 2 -10 -4 -6 -12 5 -13 7 -13 20 2 13 17 13 16 4 -3 -6 -12
-8 -24 -5 -26 2 -3 -4 -11 -13 -19 -16 -13 -17 -12 -4 4 9 11 10 17 2 17 -10
0 -15 -14 -12 -34 1 -5 -6 -6 -16 -2 -11 4 -9 -1 7 -13 13 -11 29 -17 34 -14
5 3 6 1 2 -5 -5 -8 -15 -8 -32 -2 -38 15 -42 12 -12 -8 18 -12 24 -22 18 -31
-6 -11 -9 -10 -12 5 -3 15 -7 13 -21 -15 -9 -18 -14 -37 -11 -42 3 -5 0 -9 -7
-9 -8 0 -8 -4 1 -15 11 -13 10 -14 -3 -9 -12 4 -15 1 -12 -15 3 -15 0 -18 -12
-14 -12 5 -14 3 -8 -7 6 -9 4 -11 -5 -5 -10 6 -9 11 4 21 11 8 13 14 7 19 -6
3 -11 1 -11 -5 0 -6 -5 -8 -12 -4 -6 4 -8 3 -5 -3 4 -6 -1 -19 -9 -29 -9 -10
-13 -13 -9 -6 3 6 2 12 -4 12 -5 0 -13 -10 -17 -22 l-6 -21 -13 23 c-8 15 -15
19 -19 11 -4 -6 -3 -11 2 -11 6 0 9 -11 8 -24 0 -13 -4 -22 -7 -20 -7 4 -23
-26 -21 -38 1 -4 -5 -5 -13 -2 -9 4 -15 0 -15 -9 0 -11 7 -15 21 -12 21 4 21
4 3 -16 -23 -25 -22 -22 -5 -43 12 -15 12 -17 0 -14 -8 2 -13 -3 -11 -10 1 -8
-1 -11 -5 -9 -13 8 -55 -12 -48 -23 3 -5 0 -10 -7 -10 -9 0 -9 -3 2 -10 8 -5
11 -10 5 -10 -5 0 -1 -8 10 -17 19 -15 19 -15 -10 -10 -16 4 -24 4 -17 1 6 -3
9 -11 6 -16 -5 -7 -2 -8 7 -4 8 4 5 1 -5 -8 -10 -8 -23 -13 -29 -9 -6 3 -7 1
-3 -5 3 -5 3 -12 -1 -15 -5 -2 -3 -2 4 -1 6 2 17 -5 25 -14 12 -16 11 -16 -6
-2 -18 14 -19 13 -13 -4 6 -16 5 -17 -7 -7 -11 9 -16 9 -22 0 -4 -7 -3 -9 3
-6 6 4 13 -2 16 -14 4 -16 3 -18 -8 -9 -11 9 -12 7 -8 -10 3 -11 2 -20 -3 -19
-21 4 -26 -2 -13 -18 7 -10 9 -15 4 -10 -4 4 -17 0 -27 -10 -18 -16 -18 -17 3
-39 20 -22 20 -22 1 -40 -22 -21 -38 -89 -23 -98 6 -4 8 2 6 14 -2 11 0 20 6
20 5 0 7 -10 5 -22 -2 -13 -9 -22 -15 -20 -6 1 -11 -5 -11 -13 0 -8 -6 -15
-14 -15 -8 0 -18 -4 -21 -10 -3 -5 0 -7 8 -4 8 3 14 -2 14 -11 0 -11 -7 -14
-21 -10 -20 6 -19 5 3 -14 13 -12 18 -21 12 -21 -7 0 -11 -6 -10 -12 3 -25 -1
-38 -12 -38 -8 0 -8 4 0 14 9 11 9 16 -1 22 -7 4 -10 4 -6 -1 4 -4 3 -14 -3
-21 -9 -10 -7 -15 4 -20 20 -7 29 -32 15 -40 -6 -4 -8 -3 -5 2 3 6 -4 16 -16
23 -18 11 -20 11 -9 0 6 -7 12 -21 12 -32 0 -10 4 -16 9 -13 10 7 8 -9 -3 -36
-4 -9 -14 -14 -21 -12 -7 3 -16 0 -21 -7 -4 -7 -3 -10 4 -5 7 4 9 -5 7 -26 -5
-45 -4 -45 -15 -28 -6 9 -10 10 -10 3 0 -6 4 -14 8 -17 5 -3 8 -15 7 -28 -1
-14 6 -28 19 -36 l21 -13 -22 4 c-13 3 -24 -1 -27 -10 -3 -8 -1 -11 4 -8 5 3
18 1 27 -5 15 -10 15 -11 1 -6 -23 7 -31 -5 -11 -19 18 -14 28 -49 10 -38 -7
4 -8 0 -3 -12 5 -15 4 -16 -9 -5 -14 12 -15 11 -4 -13 10 -23 15 -25 28 -15
12 10 12 8 -2 -8 -9 -11 -17 -27 -17 -35 0 -8 -6 -21 -12 -28 -11 -11 -10 -14
0 -18 10 -4 10 -8 0 -21 -11 -13 -11 -14 1 -7 11 6 13 3 9 -13 -7 -26 7 -29
21 -4 6 9 11 12 11 5 0 -6 -4 -15 -10 -18 -17 -10 -11 -25 8 -19 11 4 13 3 5
-3 -7 -5 -10 -21 -8 -35 3 -15 1 -29 -4 -32 -4 -3 -7 6 -5 19 1 14 -2 25 -8
25 -5 0 -6 -10 -2 -22 6 -21 5 -22 -12 -8 -19 14 -19 14 0 -7 10 -13 23 -20
27 -17 5 3 9 2 10 -3 0 -4 2 -16 4 -26 2 -9 -1 -15 -6 -11 -8 5 -14 -19 -9
-41 1 -5 -2 -7 -6 -3 -9 10 -36 -11 -28 -23 3 -5 -1 -6 -8 -4 -9 4 -14 -2 -15
-15 -1 -11 3 -20 8 -20 6 0 7 5 4 10 -3 6 -1 10 5 10 7 0 10 -6 7 -14 -3 -8 1
-20 9 -26 8 -7 14 -9 14 -5 0 4 7 2 16 -6 13 -10 17 -10 26 2 8 11 9 11 4 -3
-6 -20 10 -34 18 -16 3 7 3 3 0 -10 -4 -15 0 -24 10 -28 22 -8 20 -25 -1 -18
-17 5 -17 5 0 -9 18 -15 33 -62 16 -52 -5 4 -7 10 -4 15 3 5 2 11 -3 14 -4 2
-8 -6 -8 -20 0 -13 4 -24 9 -24 4 0 5 -6 0 -12 -11 -19 -13 -39 -2 -32 5 3 9
-4 9 -16 0 -12 -4 -19 -9 -16 -17 11 -5 -26 12 -39 19 -14 22 -26 6 -23 -6 2
-13 -3 -14 -10 -2 -7 -1 -8 2 -2 2 5 9 8 14 4 5 -3 6 -11 2 -17 -16 -25 -10
-59 13 -74 14 -9 21 -20 17 -30 -4 -11 -2 -14 5 -9 7 4 12 16 12 27 0 10 4 19
9 19 4 0 7 -11 6 -24 -3 -19 1 -23 13 -18 15 5 16 4 2 -13 -11 -14 -12 -19 -2
-22 6 -3 12 -11 12 -19 0 -8 5 -14 12 -14 6 0 8 -3 4 -7 -4 -5 -14 0 -21 11
-13 18 -14 18 -12 -2 0 -11 4 -19 8 -16 4 2 15 -3 23 -12 11 -10 16 -11 16 -3
0 7 3 9 6 6 4 -4 1 -14 -7 -24 -12 -15 -12 -16 5 -10 14 6 17 4 12 -8 -3 -9
-2 -13 3 -10 5 3 13 0 17 -6 5 -8 3 -9 -6 -4 -10 6 -12 4 -7 -7 3 -9 0 -22 -6
-29 -7 -7 -1 -5 12 6 l24 20 -12 -23 c-7 -13 -10 -26 -7 -30 3 -3 6 0 6 6 0 6
8 9 17 6 15 -5 16 -4 3 5 -8 6 -10 11 -4 11 19 0 24 -13 11 -28 -6 -9 -7 -13
-1 -9 6 3 18 -3 27 -14 19 -21 22 -33 7 -24 -5 3 -10 1 -10 -4 0 -6 5 -11 10
-11 6 0 10 -5 10 -11 0 -5 -5 -7 -10 -4 -6 3 -10 1 -10 -6 0 -7 10 -9 25 -7
16 3 29 0 33 -9 5 -8 18 -15 30 -16 13 -1 18 -5 13 -10 -11 -11 -3 -39 8 -32
4 2 8 -2 8 -10 0 -11 -4 -12 -13 -4 -8 7 -14 6 -20 -2 -4 -8 -3 -9 4 -5 15 9
16 -6 2 -22 -7 -9 -7 -9 2 -2 17 14 28 12 28 -6 0 -8 5 -12 10 -9 9 6 14 -8
11 -29 -1 -4 4 -14 10 -22 9 -11 8 -14 -1 -14 -8 0 -11 -3 -7 -6 13 -13 27 7
17 26 -7 13 -7 21 2 26 7 4 8 3 4 -4 -4 -7 -3 -12 2 -12 15 0 8 -40 -8 -51
-13 -9 -13 -10 0 -8 28 3 41 -1 35 -10 -5 -8 10 -24 25 -27 19 -3 58 -28 55
-35 -3 -4 -1 -10 5 -14 6 -4 8 -11 5 -16 -4 -5 -1 -17 5 -26 11 -16 11 -16 6
-1 -3 10 0 20 6 24 7 4 8 3 4 -4 -4 -7 -2 -12 4 -12 6 0 8 -5 4 -12 -5 -8 -2
-9 9 -5 10 4 16 2 14 -6 -1 -7 3 -11 10 -10 7 2 10 -3 7 -11 -3 -7 2 -19 11
-26 8 -7 15 -18 15 -24 0 -6 -5 -4 -10 4 -7 11 -10 11 -10 2 0 -7 -5 -10 -12
-6 -7 5 -8 3 -4 -5 5 -7 11 -10 14 -7 3 3 12 0 20 -7 9 -6 13 -7 9 -1 -4 7 5
11 23 11 17 0 30 -3 30 -7 0 -4 6 -7 13 -8 22 -2 42 -8 63 -20 12 -6 25 -8 30
-4 5 4 1 -2 -8 -13 -13 -16 -14 -22 -3 -32 7 -6 16 -9 21 -5 4 4 4 1 0 -6 -4
-7 -12 -10 -17 -7 -5 4 -9 1 -9 -6 0 -7 8 -9 21 -6 19 5 20 4 5 -12 -9 -10
-16 -22 -16 -27 0 -5 5 -1 11 9 10 17 12 17 36 2 14 -10 22 -12 19 -6 -10 16
3 14 19 -3 8 -7 11 -17 7 -21 -4 -5 -2 -5 5 -2 15 9 45 -2 37 -14 -3 -5 -9 -7
-14 -4 -5 3 -12 0 -16 -6 -4 -8 -3 -9 4 -5 7 4 13 2 13 -3 1 -6 2 -15 3 -21 0
-5 5 -9 11 -7 5 1 9 5 8 9 -5 14 7 8 30 -13 12 -12 16 -18 8 -14 -10 6 -12 4
-7 -4 5 -7 14 -10 20 -8 9 4 11 -2 9 -17 -3 -13 2 -28 13 -37 16 -13 16 -12 5
10 -11 19 -11 22 1 15 7 -5 24 -9 38 -9 14 0 31 -4 38 -8 6 -5 15 -6 20 -3 11
7 72 -21 72 -34 0 -5 4 -10 10 -10 5 0 7 6 4 14 -3 7 2 16 12 20 14 5 15 4 4
-9 -10 -12 -9 -16 4 -21 9 -3 13 -10 10 -15 -3 -5 3 -6 12 -2 14 5 16 3 11
-12 -6 -14 -5 -16 7 -6 11 9 15 8 20 -5 8 -22 8 -26 -4 -19 -5 3 -7 0 -4 -9 3
-8 14 -14 24 -13 10 1 17 4 15 7 -2 4 3 7 11 7 8 0 13 -6 10 -13 -3 -8 0 -16
6 -20 7 -4 8 -3 4 4 -4 7 -2 12 4 12 6 0 9 4 6 9 -7 10 13 9 31 -2 6 -4 14 -2
16 3 3 6 4 5 3 -2 -2 -7 -13 -12 -24 -12 -12 1 -22 -3 -22 -8 0 -6 6 -8 14 -5
7 3 19 0 26 -6 9 -9 11 -9 7 -1 -4 7 0 15 9 18 8 3 12 2 9 -4 -3 -6 -1 -10 6
-10 8 0 7 -5 -2 -17 -12 -16 -12 -17 1 -7 8 6 23 10 32 9 10 -2 21 2 25 7 4 7
1 8 -8 3 -11 -6 -12 -5 -2 5 19 20 29 3 15 -23 -10 -16 -6 -14 12 6 15 15 26
24 26 18 0 -6 7 -8 15 -5 8 4 15 1 15 -4 0 -6 -9 -9 -19 -7 -14 3 -18 -1 -14
-12 3 -8 9 -10 12 -5 3 5 16 8 29 7 15 -1 21 3 18 12 -4 9 1 9 19 -3 16 -11
25 -12 25 -5 0 9 5 9 20 1 14 -8 20 -8 20 0 0 8 6 8 20 0 15 -8 20 -8 20 1 0
6 7 8 16 5 9 -4 24 -1 33 6 9 7 13 9 9 4 -9 -11 14 -35 27 -28 6 3 4 -1 -3
-10 -10 -13 -10 -17 3 -22 9 -3 14 -10 10 -15 -3 -5 0 -13 6 -17 8 -4 9 -3 5
5 -5 8 0 10 18 7 14 -3 26 0 26 6 0 6 -8 7 -17 3 -14 -5 -15 -3 -7 5 9 9 19 7
39 -6 35 -23 52 -26 52 -8 0 7 -5 10 -11 7 -6 -3 -8 -2 -3 2 9 11 77 13 71 3
-3 -5 0 -8 6 -8 6 0 8 -5 4 -12 -4 -7 -3 -8 5 -4 6 4 9 11 6 16 -3 5 -1 11 5
15 5 3 10 -1 10 -9 0 -9 5 -16 11 -16 6 0 9 6 6 13 -3 8 1 14 9 14 8 0 13 -6
10 -13 -3 -8 0 -16 6 -20 7 -4 8 -3 4 4 -4 7 -2 12 4 12 6 0 9 4 6 8 -2 4 11
8 30 8 24 0 33 -4 30 -13 -3 -7 0 -15 6 -19 7 -4 8 -3 4 4 -4 7 -2 12 4 12 6
0 9 4 6 9 -4 5 2 8 11 6 10 -2 22 -4 26 -4 5 -1 6 -4 4 -8 -3 -5 6 -8 19 -8
13 0 22 5 20 11 -2 6 2 11 10 11 9 0 13 -7 9 -21 -3 -12 -2 -15 1 -8 3 6 11 9
16 6 6 -4 8 -2 5 3 -4 6 0 16 8 23 8 7 12 17 8 24 -3 6 -3 8 2 4 4 -4 14 -3
22 4 7 6 16 8 19 5 3 -3 -6 -13 -20 -22 -14 -10 -26 -21 -26 -27 0 -5 12 2 27
16 15 14 30 23 34 20 4 -2 11 1 15 7 4 8 3 9 -4 5 -7 -4 -12 -3 -12 2 0 6 7
13 16 16 8 3 13 2 10 -3 -3 -4 22 -9 56 -10 34 -1 65 -4 69 -7 17 -10 49 -13
44 -3 -4 6 5 7 24 4 16 -3 32 -1 35 4 3 4 -6 7 -19 5 -14 -1 -27 1 -29 5 -11
17 58 3 72 -15 14 -19 14 -19 10 2 -3 13 0 21 8 21 7 0 11 -4 9 -8 -3 -4 2
-10 11 -13 12 -5 15 -2 10 9 -3 9 -2 13 4 10 6 -3 13 1 17 11 5 14 8 13 19 -7
7 -13 13 -18 14 -11 0 7 5 10 10 7 6 -4 7 -11 4 -17 -4 -7 -2 -8 4 -4 9 5 9
12 0 26 -7 10 -16 17 -20 14 -4 -3 -5 2 -1 11 4 12 8 13 13 5 4 -7 13 -9 19
-6 6 4 8 13 4 19 -5 9 -3 9 8 1 18 -13 38 -12 47 2 4 6 16 16 27 22 19 11 19
12 -4 9 -14 -1 -26 4 -28 13 -4 12 -3 12 5 1 6 -8 12 -9 16 -3 8 14 57 12 49
-2 -3 -6 0 -6 8 2 15 14 33 17 25 4 -3 -5 1 -9 9 -9 18 0 19 9 3 27 -11 12
-10 12 5 1 9 -7 17 -10 17 -5 0 5 7 1 14 -9 13 -16 15 -16 24 13 6 16 14 30
17 30 3 0 4 -4 1 -9 -3 -5 1 -11 8 -14 15 -6 15 20 1 43 -4 6 1 7 11 3 11 -4
15 -2 11 4 -3 5 5 20 20 33 17 15 24 17 20 7 -3 -8 0 -18 7 -20 8 -3 13 1 12
10 0 9 5 18 12 20 6 3 12 0 12 -7 0 -6 -5 -8 -12 -4 -7 5 -8 3 -3 -6 6 -10 11
-9 22 5 7 11 13 14 13 9 0 -6 7 -11 15 -11 8 0 12 4 9 9 -3 4 0 8 5 8 6 0 11
-4 11 -10 0 -5 4 -10 10 -10 5 0 6 8 3 17 -6 15 -4 16 9 5 11 -9 18 -10 23 -2
3 6 11 8 16 4 5 -3 8 -2 7 3 -2 4 1 8 7 8 5 0 9 -4 7 -8 -1 -5 2 -6 8 -2 8 5
7 11 -1 21 -6 8 -9 17 -6 21 4 3 2 12 -4 19 -8 9 -5 11 10 7 12 -3 21 -1 21 5
0 6 8 9 18 7 9 -1 22 2 29 7 7 5 16 7 21 4 6 -3 15 1 22 9 7 8 16 13 19 10 4
-2 8 3 8 11 0 11 -6 9 -24 -8 -12 -12 -23 -17 -23 -12 0 5 9 15 20 22 12 7 18
17 15 22 -4 6 1 7 12 3 16 -6 17 -5 3 12 -9 11 -10 16 -2 11 12 -7 16 4 13 31
-2 16 4 16 32 1 19 -9 20 -9 10 3 -9 12 -4 14 33 12 24 0 44 3 44 9 0 5 6 6
13 2 9 -6 9 -4 -1 8 -10 13 -10 17 0 21 7 2 9 8 5 13 -9 10 -28 -16 -21 -28 3
-4 0 -8 -6 -8 -13 0 -10 30 5 46 6 7 13 10 18 7 4 -2 7 1 7 6 0 6 -5 11 -12
11 -6 0 -8 3 -5 6 4 4 13 2 20 -5 11 -9 17 -8 27 4 7 8 17 12 23 8 6 -3 7 -1
3 5 -6 10 6 17 18 10 2 -2 13 5 23 14 15 14 22 15 33 5 7 -6 10 -7 7 -1 -4 6
1 20 9 30 9 10 13 15 11 9 -3 -5 7 -19 22 -29 14 -11 20 -13 14 -6 -16 17 -17
40 -2 40 5 0 8 -4 4 -9 -6 -11 12 -25 36 -26 12 -1 16 5 14 22 -3 26 10 39 21
22 5 -8 3 -9 -7 -4 -11 6 -11 5 -2 -5 6 -7 9 -20 6 -29 -4 -12 -3 -13 4 -3 6
7 9 25 8 40 -1 21 -6 26 -20 24 -16 -3 -17 -2 -6 12 16 19 1 22 -18 3 -12 -10
-13 -9 -7 7 5 14 4 16 -6 8 -10 -8 -13 -4 -13 18 -1 16 3 26 8 23 5 -3 7 0 5
8 -3 8 -11 13 -18 11 -10 -2 -11 0 -2 11 7 8 10 16 7 18 -2 3 7 6 21 7 17 1
23 -2 18 -10 -5 -7 -3 -8 5 -4 7 5 10 11 7 14 -3 3 0 12 7 21 10 14 10 14 -4
3 -14 -10 -19 -9 -30 5 -13 16 -12 17 4 4 11 -9 17 -10 17 -2 0 6 7 11 15 11
8 0 15 5 15 11 0 5 -4 8 -9 4 -5 -3 -13 0 -17 6 -4 8 -3 9 4 5 13 -8 35 27 24
40 -4 5 2 2 12 -6 17 -13 18 -13 11 -1 -6 11 -4 13 7 9 11 -5 14 0 10 19 -3
17 -1 24 6 19 6 -4 8 2 4 16 -3 12 -1 19 5 15 5 -3 10 0 10 8 0 11 -5 12 -21
3 -19 -9 -19 -8 3 13 16 17 25 20 28 12 3 -7 9 -13 14 -13 6 0 5 8 -1 20 -11
21 -4 25 29 20 13 -2 13 0 0 16 -13 16 -12 16 9 5 12 -7 20 -17 16 -23 -4 -6
-3 -8 4 -4 10 6 10 14 0 56 -2 9 3 14 11 12 11 -2 12 0 3 11 -9 11 -8 14 3 14
8 0 15 -4 15 -9 0 -5 5 -6 11 -3 6 5 4 11 -7 19 -15 12 -14 14 8 32 21 17 23
22 11 33 -10 9 -11 16 -4 25 6 7 7 17 3 21 -4 5 -1 5 6 1 9 -6 10 -11 3 -20
-8 -9 -7 -13 4 -13 8 0 12 3 10 7 -3 4 4 15 15 25 11 10 17 21 15 26 -3 4 0
11 6 15 8 5 9 3 4 -6 -5 -8 -4 -11 3 -6 6 3 11 15 11 26 1 11 1 29 2 40 0 12
5 18 11 14 7 -4 8 -2 4 4 -4 6 -13 9 -20 6 -8 -3 -17 -1 -21 5 -4 7 0 8 11 4
12 -5 15 -3 9 6 -6 11 -3 11 16 0 20 -10 22 -10 13 2 -9 12 -11 33 -4 42 7 9
7 36 -1 31 -16 -10 -10 8 9 23 11 10 12 12 2 8 -10 -4 -9 -2 3 8 20 16 23 32
5 21 -10 -6 -10 -4 0 7 17 19 15 29 -5 22 -11 -3 -7 2 7 13 14 10 29 18 33 16
5 -1 6 2 2 8 -4 6 -1 18 7 27 9 12 9 15 1 9 -7 -4 -13 -3 -13 3 0 5 4 12 10
16 5 3 6 13 3 22 -4 10 -2 14 4 10 7 -5 10 2 8 18 -1 14 2 28 7 31 5 3 4 12
-3 20 -10 12 -8 13 7 8 18 -6 18 -6 1 7 -24 20 -31 60 -9 53 13 -4 13 -2 -3
11 -20 17 -20 17 5 10 l25 -6 -24 19 c-14 11 -20 22 -13 26 12 7 11 24 -2 45
-6 10 -5 12 2 7 13 -8 12 90 -1 112 -5 7 -3 12 3 12 6 0 8 11 6 25 -3 14 -1
23 3 21 4 -3 13 4 19 15 12 19 11 19 -8 9 -12 -6 -24 -9 -28 -6 -3 3 0 6 5 6
13 0 12 18 -1 39 -7 10 -6 12 4 6 10 -6 12 0 8 23 -3 20 0 28 7 26 7 -3 12 2
12 10 0 8 -4 13 -8 11 -4 -3 -9 9 -11 26 -4 23 -1 29 10 24 12 -5 13 -3 2 10
-17 20 -21 68 -4 55 7 -7 11 -5 11 5 0 8 -6 15 -13 15 -9 0 -10 8 -5 28 4 15
6 33 3 41 -2 8 0 11 5 8 5 -3 9 3 9 14 0 19 -1 19 -13 3 -14 -20 -30 -13 -17
8 13 21 13 36 -1 48 -10 8 -15 8 -21 -1 -5 -8 -3 -10 7 -4 8 5 11 5 7 0 -4 -4
-3 -13 2 -20 7 -8 5 -12 -5 -12 -8 0 -13 3 -10 5 3 3 -3 14 -12 25 -11 12 -12
17 -4 12 11 -6 13 -2 9 19 -4 19 -1 26 11 26 14 0 14 2 1 9 -8 6 -18 7 -24 4
-5 -3 -6 -1 -2 5 4 6 13 9 20 6 8 -3 17 0 22 7 4 7 3 10 -4 6 -13 -9 -42 2
-42 15 0 5 5 6 12 2 6 -4 8 -3 4 4 -3 5 0 13 6 15 10 4 10 6 0 6 -7 1 -10 6
-6 12 4 8 -1 9 -17 4 -13 -3 -19 -3 -13 2 14 11 25 43 15 43 -5 0 -11 -7 -15
-15 -3 -8 -11 -15 -18 -15 -9 0 -9 3 -2 8 6 4 13 18 17 31 4 17 1 24 -13 28
-18 5 -21 26 -5 40 4 4 5 3 1 -4 -3 -6 -3 -14 2 -17 4 -2 8 6 8 20 0 13 -4 24
-9 24 -4 0 -5 4 -2 10 3 6 -1 7 -9 4 -9 -3 -16 -2 -16 4 0 6 6 13 12 15 7 3 3
6 -9 6 -13 1 -23 6 -23 12 0 5 5 7 12 3 6 -4 8 -3 5 4 -4 5 -15 9 -25 7 -9 -1
-11 0 -4 2 7 3 10 9 7 14 -3 5 1 6 9 3 9 -3 16 -1 16 5 0 6 -3 10 -7 10 -19
-3 -31 2 -37 16 -4 12 -2 13 13 6 13 -7 18 -6 18 4 0 8 -4 12 -8 9 -4 -2 -10
0 -14 6 -4 6 -10 8 -14 6 -4 -3 -7 6 -7 19 0 13 4 22 8 19 4 -3 5 3 1 12 -5
13 -3 15 8 10 8 -4 2 3 -13 17 -21 19 -24 27 -15 38 9 9 7 9 -6 -1 -16 -12
-16 -16 -5 -24 15 -12 17 -31 6 -40 -5 -3 -6 -3 -3 0 2 4 -1 16 -8 28 -6 11
-12 26 -12 31 -1 6 -9 24 -18 42 -19 36 -21 47 -8 38 5 -3 13 0 17 6 4 8 3 9
-4 5 -7 -4 -12 -3 -12 1 0 5 -7 18 -16 29 -15 18 -15 18 -5 -3 7 -14 8 -24 1
-28 -5 -3 -11 -3 -11 2 -4 29 -3 39 5 51 5 7 6 15 2 19 -3 3 -6 0 -6 -8 0 -11
-2 -11 -10 1 -13 20 -12 33 2 24 7 -4 8 -3 4 5 -4 6 -12 9 -17 6 -5 -4 -9 -2
-9 4 0 5 6 12 13 14 9 4 9 6 0 6 -6 1 -15 -4 -18 -9 -5 -8 -11 -7 -21 1 -11 9
-11 15 -3 25 7 9 8 14 1 14 -5 0 -13 7 -16 16 -6 15 -4 15 11 3 15 -11 15 -10
-1 7 -14 15 -20 16 -23 5 -3 -8 -17 8 -34 39 -16 29 -26 56 -23 61 3 5 -2 6
-11 3 -14 -6 -14 -8 0 -24 11 -12 13 -20 6 -25 -10 -6 -15 1 -12 18 1 4 -6 10
-14 13 -8 4 -15 10 -15 16 0 5 5 6 10 3 6 -3 10 -1 10 4 0 6 -5 11 -10 11 -7
0 -7 6 0 19 7 14 7 22 0 26 -6 4 -9 1 -8 -6 2 -6 -3 -14 -10 -16 -7 -3 -12 -1
-11 4 4 20 -2 34 -11 28 -6 -4 -7 -12 -3 -18 4 -7 0 -6 -10 2 -22 17 -22 31 0
31 32 0 -6 15 -49 19 -5 1 -8 8 -8 17 0 9 -5 12 -12 8 -7 -5 -8 -3 -3 6 6 10
10 10 20 -3 10 -14 13 -13 25 6 12 20 12 21 -3 8 -14 -11 -18 -11 -23 3 -5 14
-9 14 -22 4 -14 -12 -14 -10 -2 12 12 23 12 24 -3 12 -14 -12 -16 -11 -12 7 2
11 1 20 -3 20 -19 -3 -32 2 -32 12 0 5 6 7 13 4 6 -4 3 0 -7 9 -10 8 -23 13
-28 9 -6 -3 -5 4 1 16 13 23 3 28 -19 9 -12 -11 -12 -10 -2 4 10 13 10 17 0
22 -7 3 -2 4 10 2 27 -5 23 2 -9 18 -12 6 -24 22 -26 36 -2 18 -1 21 6 10 5
-8 7 -18 5 -22 -3 -4 2 -5 10 -2 22 9 -17 48 -49 50 -14 0 -23 -2 -19 -5 3 -3
10 -6 15 -6 5 0 9 -3 9 -7 0 -5 0 -11 0 -14 0 -4 -7 -1 -15 6 -8 7 -21 10 -30
7 -8 -4 -17 -2 -20 4 -4 5 -13 3 -21 -6 -17 -16 -38 -11 -31 8 2 7 0 22 -4 34
-5 14 -4 25 3 29 7 5 8 3 3 -6 -5 -9 -4 -11 4 -6 6 4 9 12 5 17 -3 5 -10 7
-15 4 -5 -4 -9 -2 -9 4 0 5 6 12 13 15 6 4 2 4 -9 2 -15 -2 -21 2 -20 12 1 21
-46 22 -52 2 -3 -13 -2 -13 7 0 8 12 11 12 11 1 0 -11 3 -11 18 0 15 13 16 12
4 -3 -12 -16 -35 -18 -48 -6 -3 4 -13 4 -22 1 -11 -5 -13 -3 -7 8 7 11 6 12
-6 3 -16 -12 -29 -12 -46 -1 -8 5 -13 3 -13 -4 0 -6 -10 0 -21 15 -12 15 -19
30 -15 33 3 4 6 1 6 -6 0 -7 5 -9 12 -5 6 4 8 3 4 -4 -3 -6 -2 -13 4 -17 6 -4
9 4 8 18 -2 17 -7 23 -17 19 -10 -4 -12 -1 -6 9 6 11 5 12 -5 2 -10 -10 -19
-8 -42 8 -15 11 -26 24 -24 28 8 12 -38 11 -47 -2 -6 -8 -7 -6 -3 6 5 15 2 17
-14 12 -12 -4 -20 -2 -20 6 0 8 -5 8 -17 -2 -16 -13 -17 -12 -4 4 10 13 11 20
2 30 -6 8 -7 18 -3 22 4 5 1 5 -5 1 -7 -4 -13 -2 -13 4 0 6 -5 8 -12 4 -7 -4
-8 -3 -4 4 4 6 14 9 24 6 9 -3 7 1 -6 8 -15 9 -19 17 -12 24 6 6 3 10 -10 10
-11 0 -19 -5 -16 -11 2 -7 -2 -12 -9 -12 -7 0 -12 8 -10 18 2 11 -2 16 -13 14
-9 -2 -21 -4 -25 -4 -5 -1 -6 -5 -3 -10 3 -5 -2 -15 -12 -22 -16 -13 -16 -13
-2 5 14 18 13 19 -4 12 -19 -7 -19 -6 -2 13 13 14 14 21 5 27 -7 4 -10 3 -6
-3 4 -6 -10 -21 -31 -32 l-37 -21 30 24 c16 14 26 28 22 32 -4 4 -7 2 -7 -4 0
-7 -7 -12 -16 -12 -8 0 -13 4 -10 8 3 5 -1 9 -9 9 -10 0 -12 -4 -5 -12 7 -9 6
-16 -4 -24 -11 -9 -16 -9 -22 0 -4 7 -3 9 4 5 6 -3 13 -2 17 4 3 5 -3 10 -14
10 -10 0 -22 6 -25 13 -3 6 -3 2 0 -10 3 -14 1 -23 -6 -23 -6 0 -8 5 -5 10 3
6 2 10 -3 10 -6 0 -9 7 -8 16 0 9 -7 18 -17 19 -9 2 -15 -1 -11 -6 3 -5 10 -7
15 -4 5 4 9 1 9 -4 0 -6 -5 -11 -11 -11 -8 0 -8 -4 0 -13 8 -10 7 -14 -4 -14
-7 0 -14 3 -13 6 2 22 -5 31 -22 31 -11 0 -20 -6 -20 -12 0 -9 -3 -9 -8 -3 -9
14 -52 17 -52 4 0 -6 -5 -7 -11 -4 -14 9 -4 18 23 20 12 1 24 8 26 16 2 8 0
10 -5 4 -4 -5 -17 -10 -28 -9 -11 0 -24 -3 -30 -6 -17 -10 -50 -6 -48 7 3 12
-15 12 -36 -1 -11 -7 -13 -3 -9 18 4 21 3 24 -8 15 -10 -8 -14 -8 -14 0 0 6
-3 10 -7 10 -22 -4 -33 3 -34 19 0 14 -2 14 -7 2 -8 -17 -32 -25 -32 -11 0 5
-7 12 -16 15 -10 4 -13 2 -8 -6 5 -8 2 -9 -9 -5 -10 4 -20 0 -25 -10 -8 -14
-10 -13 -15 1 -5 11 -3 15 5 10 7 -4 8 -3 4 4 -9 15 -47 -7 -39 -23 3 -5 0 -4
-8 3 -12 11 -12 14 1 23 12 9 12 10 -4 5 -10 -4 -26 -1 -35 6 -13 11 -13 9 1
-8 16 -19 16 -20 -2 -20 -10 0 -17 4 -14 7 2 4 0 10 -6 14 -5 3 -10 -2 -10
-11 0 -16 -1 -16 -14 2 -12 16 -17 17 -28 6 -11 -11 -10 -12 5 -7 9 4 17 3 17
-2 0 -5 -9 -9 -20 -10 -18 -2 -25 8 -21 30 2 13 -11 7 -31 -15 -13 -16 -18
-18 -15 -6 4 11 1 15 -11 13 -9 -2 -21 -4 -25 -4 -5 -1 -5 -5 -2 -11 4 -6 -1
-7 -11 -3 -13 5 -15 3 -9 -8 8 -12 6 -12 -8 0 -9 7 -17 10 -18 5 0 -5 -4 1 -9
13 -10 25 -40 22 -40 -4 0 -11 -6 -8 -21 8 -11 13 -18 19 -15 12 7 -13 -32
-15 -50 -1 -6 4 -11 2 -11 -7 0 -8 4 -12 8 -9 4 2 10 0 13 -5 4 -5 -2 -8 -11
-6 -10 1 -24 -3 -32 -9 -11 -8 -13 -8 -7 2 4 6 2 12 -3 12 -6 0 -11 -6 -11
-12 0 -10 -2 -10 -9 0 -4 8 -11 13 -15 13 -19 -3 -27 0 -22 8 4 5 0 8 -6 7
-20 -3 -39 -17 -34 -25 3 -3 -4 -7 -14 -7 -18 0 -18 2 2 23 12 13 19 23 15 23
-3 0 -9 -5 -12 -10z m257 -22 c-7 -7 -12 -8 -12 -2 0 14 12 26 19 19 2 -3 -1
-11 -7 -17z m-207 -17 c-6 -5 -25 10 -25 20 0 5 6 4 14 -3 8 -7 12 -15 11 -17z
m145 4 c14 -19 14 -19 -2 -6 -10 7 -18 18 -18 24 0 6 1 8 3 6 1 -2 9 -13 17
-24z m-375 -57 c3 -3 -3 -11 -12 -19 -10 -7 -15 -9 -11 -5 4 5 3 15 -3 22 -7
9 -6 12 5 10 9 -1 18 -5 21 -8z m30 3 c3 -5 2 -12 -3 -15 -5 -3 -9 1 -9 9 0
17 3 19 12 6z m945 -11 c0 -5 -2 -10 -4 -10 -3 0 -8 5 -11 10 -3 6 -1 10 4 10
6 0 11 -4 11 -10z m387 -42 c-3 -8 -6 -5 -6 6 -1 11 2 17 5 13 3 -3 4 -12 1
-19z m87 -67 c3 -5 -1 -11 -9 -14 -9 -4 -12 -1 -8 9 6 16 10 17 17 5z m151
-105 c6 -5 -2 -2 -17 7 -16 10 -28 13 -28 7 0 -6 -5 -8 -12 -4 -9 6 -9 9 0 12
10 3 10 7 0 20 -11 15 26 -13 57 -42z m-2152 -11 c-3 -9 -8 -14 -10 -11 -3 3
-2 9 2 15 9 16 15 13 8 -4z m-53 -20 c0 -8 -4 -15 -10 -15 -5 0 -7 7 -4 15 4
8 8 15 10 15 2 0 4 -7 4 -15z m-267 -180 c-3 -9 -8 -14 -10 -11 -3 3 -2 9 2
15 9 16 15 13 8 -4z m-23 -35 c0 -5 -5 -10 -11 -10 -5 0 -7 5 -4 10 3 6 8 10
11 10 2 0 4 -4 4 -10z m-40 -90 c-8 -5 -18 -6 -22 -4 -7 5 -12 -11 -9 -29 1
-5 -3 -6 -9 -2 -17 10 6 40 32 42 17 2 19 0 8 -7z m3084 -102 c-3 -5 -10 -6
-15 -3 -5 4 -9 1 -9 -6 0 -7 -3 -10 -6 -6 -9 9 3 24 20 24 8 0 13 -4 10 -9z
m289 -432 c15 -22 15 -24 0 -22 -9 2 -17 12 -18 24 -2 28 -1 27 18 -2z m-3818
-46 c3 -6 -1 -7 -9 -4 -18 7 -21 14 -7 14 6 0 13 -4 16 -10z m-10 -19 c3 -5 2
-12 -3 -15 -5 -3 -9 1 -9 9 0 17 3 19 12 6z m-62 -201 c-3 -12 -8 -19 -11 -16
-5 6 5 36 12 36 2 0 2 -9 -1 -20z m-43 -30 c-12 -8 -12 -10 -1 -10 8 0 12 -3
8 -6 -9 -9 -28 6 -22 17 4 5 12 9 18 9 7 0 6 -4 -3 -10z m4070 0 c0 -5 -4 -10
-10 -10 -5 0 -10 5 -10 10 0 6 5 10 10 10 6 0 10 -4 10 -10z m15 -70 c-3 -5
-12 -10 -18 -10 -7 0 -6 4 3 10 19 12 23 12 15 0z m80 -311 c-4 -5 -12 -9 -18
-8 -9 0 -8 2 1 6 6 2 9 10 6 15 -4 7 -2 8 5 4 6 -4 9 -12 6 -17z m-4252 -98
c-5 -3 -9 -18 -8 -33 1 -15 -2 -25 -7 -22 -12 8 -10 -10 5 -26 10 -12 9 -12
-5 -1 -17 12 -19 34 -7 56 4 6 5 18 4 27 -2 11 2 15 12 11 8 -3 11 -9 6 -12z
m-6 -327 c-9 -9 -28 6 -21 18 4 6 10 6 17 -1 6 -6 8 -13 4 -17z m4243 -234 c0
-5 -2 -10 -4 -10 -3 0 -8 5 -11 10 -3 6 -1 10 4 10 6 0 11 -4 11 -10z m10 -59
c0 -4 -10 -16 -22 -27 -13 -11 -18 -13 -11 -3 8 10 9 19 3 25 -6 6 -3 10 10
11 11 1 20 -2 20 -6z m-23 -59 c-19 -20 -23 -37 -7 -27 6 3 7 -1 3 -10 -5 -13
-7 -14 -14 -3 -12 18 -11 24 7 42 22 22 31 20 11 -2z m-4143 -20 c3 -5 -1 -9
-9 -9 -8 0 -12 4 -9 9 3 4 7 8 9 8 2 0 6 -4 9 -8z m4080 -120 c3 -5 -1 -9 -9
-9 -8 0 -12 4 -9 9 3 4 7 8 9 8 2 0 6 -4 9 -8z m-4067 -29 c0 -9 -4 -10 -14
-2 -7 6 -13 12 -13 14 0 1 6 2 13 2 8 0 14 -6 14 -14z m4074 -36 c-6 -8 -9
-16 -6 -19 3 -2 -1 -5 -9 -5 -11 0 -12 4 -3 19 7 10 16 18 21 18 4 0 3 -6 -3
-13z m-4077 -19 c-5 -8 -1 -9 12 -4 14 5 16 4 8 -4 -12 -12 -47 -3 -38 11 3 5
10 9 15 9 6 0 7 -5 3 -12z m25 -84 c-6 -8 -8 -14 -4 -14 4 0 2 -7 -5 -15 -10
-12 -10 -15 4 -15 9 0 16 -5 16 -10 0 -7 -6 -7 -18 -1 -16 9 -22 47 -12 71 1
3 2 9 1 14 -1 5 5 4 14 -4 12 -10 13 -16 4 -26z m4041 12 c0 -3 -4 -8 -10 -11
-5 -3 -10 -1 -10 4 0 6 5 11 10 11 6 0 10 -2 10 -4z m-40 -80 c0 -3 -4 -8 -10
-11 -5 -3 -10 -1 -10 4 0 6 5 11 10 11 6 0 10 -2 10 -4z m-3923 -52 c-3 -3
-12 -4 -19 -1 -8 3 -5 6 6 6 11 1 17 -2 13 -5z m3878 -14 c3 -5 1 -10 -4 -10
-6 0 -11 5 -11 10 0 6 2 10 4 10 3 0 8 -4 11 -10z m-3538 -504 c-1 -6 4 -10
11 -8 6 1 12 -3 12 -9 0 -5 5 -7 12 -3 7 4 8 3 4 -4 -5 -9 -13 -9 -29 0 -12 7
-25 13 -29 14 -5 1 -11 2 -14 3 -3 0 -3 5 0 9 8 13 35 10 33 -2z m3190 -61 c0
-8 -3 -13 -5 -10 -3 3 -14 -2 -24 -12 -10 -9 -18 -11 -18 -6 0 8 18 25 46 42
0 1 1 -6 1 -14z m-54 -15 c-3 -12 -8 -19 -11 -16 -5 6 5 36 12 36 2 0 2 -9 -1
-20z m167 16 c0 -2 -7 -7 -16 -10 -8 -3 -12 -2 -9 4 6 10 25 14 25 6z m-197
-30 c3 -8 -3 -22 -14 -32 -17 -16 -19 -16 -19 -1 0 10 6 16 13 15 6 -2 11 5 9
15 -3 20 4 23 11 3z m-89 -111 c3 -8 1 -15 -4 -15 -6 0 -10 7 -10 15 0 8 2 15
4 15 2 0 6 -7 10 -15z m-2654 -135 c0 -5 -2 -10 -4 -10 -3 0 -8 5 -11 10 -3 6
-1 10 4 10 6 0 11 -4 11 -10z m2478 -2 c-2 -6 -12 -12 -22 -14 -14 -2 -15 0
-5 12 14 17 32 19 27 2z m-2418 -19 c0 -14 -17 -10 -23 5 -4 10 -1 13 9 9 7
-3 14 -9 14 -14z m2367 15 c-3 -3 -12 -4 -19 -1 -8 3 -5 6 6 6 11 1 17 -2 13
-5z m-2327 -68 c0 -2 -7 -7 -16 -10 -8 -3 -12 -2 -9 4 6 10 25 14 25 6z m2290
-1 c0 -1 -8 -10 -19 -19 -16 -15 -19 -15 -24 -2 -4 11 -1 13 10 9 10 -4 14 -2
10 4 -3 5 0 10 8 10 8 0 15 -1 15 -2z m-436 -200 c-4 -8 -11 -12 -16 -9 -6 4
-5 10 3 15 19 12 19 11 13 -6z m-1354 -55 c0 -5 -2 -10 -4 -10 -3 0 -8 5 -11
10 -3 6 -1 10 4 10 6 0 11 -4 11 -10z m1070 -10 c0 8 3 11 6 7 3 -3 3 -10 0
-16 -8 -12 -36 -3 -36 11 0 6 6 5 15 -2 12 -10 15 -10 15 0z m-626 -66 c5 -14
4 -15 -9 -4 -17 14 -19 20 -6 20 5 0 12 -7 15 -16z"/>
<path d="M2171 4657 c-8 -10 -7 -14 2 -14 8 0 14 6 14 14 0 7 -1 13 -2 13 -2
0 -8 -6 -14 -13z"/>
<path d="M2400 4661 c0 -7 -5 -9 -12 -5 -7 5 -8 3 -3 -5 5 -9 10 -10 18 -2 6
6 8 14 4 18 -4 3 -7 1 -7 -6z"/>
<path d="M2811 4644 c0 -11 3 -14 6 -6 3 7 2 16 -1 19 -3 4 -6 -2 -5 -13z"/>
<path d="M2916 4592 c-3 -5 1 -9 9 -9 8 0 12 4 9 9 -3 4 -7 8 -9 8 -2 0 -6 -4
-9 -8z"/>
<path d="M1597 4553 c-10 -9 -9 -23 1 -23 5 0 9 7 9 15 0 17 -1 18 -10 8z"/>
<path d="M1636 4547 c3 -10 9 -15 12 -12 3 3 0 11 -7 18 -10 9 -11 8 -5 -6z"/>
<path d="M3390 4446 c0 -8 4 -17 9 -20 5 -4 7 3 4 14 -6 23 -13 26 -13 6z"/>
<path d="M1464 4442 c3 -5 0 -12 -6 -15 -7 -2 -10 -7 -7 -11 3 -4 12 0 18 8 9
11 9 16 0 22 -7 4 -9 3 -5 -4z"/>
<path d="M3420 4440 c0 -5 5 -10 11 -10 5 0 7 5 4 10 -3 6 -8 10 -11 10 -2 0
-4 -4 -4 -10z"/>
<path d="M3581 4323 c-1 -18 13 -23 29 -11 12 8 12 9 -2 5 -9 -3 -19 -1 -22 6
-3 9 -5 9 -5 0z"/>
<path d="M890 4296 c0 -2 8 -10 18 -17 15 -13 16 -12 3 4 -13 16 -21 21 -21
13z"/>
<path d="M1113 4215 c1 -5 -4 -9 -11 -7 -8 1 -11 -2 -7 -8 4 -6 15 -4 31 6 29
20 29 20 5 20 -11 0 -19 -5 -18 -11z"/>
<path d="M3763 4206 c0 -18 3 -24 9 -18 7 7 7 16 0 28 -8 14 -9 13 -9 -10z"/>
<path d="M3790 4219 c0 -5 5 -7 10 -4 6 3 10 8 10 11 0 2 -4 4 -10 4 -5 0 -10
-5 -10 -11z"/>
<path d="M3810 4199 c0 -5 5 -7 10 -4 6 3 10 8 10 11 0 2 -4 4 -10 4 -5 0 -10
-5 -10 -11z"/>
<path d="M4036 4007 c3 -10 9 -15 12 -12 3 3 0 11 -7 18 -10 9 -11 8 -5 -6z"/>
<path d="M890 4000 c0 -5 5 -10 11 -10 5 0 7 5 4 10 -3 6 -8 10 -11 10 -2 0
-4 -4 -4 -10z"/>
<path d="M713 3773 c0 -9 4 -10 14 -2 7 6 13 12 13 14 0 1 -6 2 -13 2 -8 0
-14 -6 -14 -14z"/>
<path d="M4211 3764 c0 -11 3 -14 6 -6 3 7 2 16 -1 19 -3 4 -6 -2 -5 -13z"/>
<path d="M4227 3746 c-4 -10 -1 -13 8 -9 8 3 12 9 9 14 -7 12 -11 11 -17 -5z"/>
<path d="M4265 3660 c3 -5 8 -10 11 -10 2 0 4 5 4 10 0 6 -5 10 -11 10 -5 0
-7 -4 -4 -10z"/>
<path d="M574 3638 c2 -7 -1 -23 -5 -35 -12 -33 -2 -28 17 8 8 17 11 28 6 25
-6 -3 -13 -1 -15 4 -3 6 -4 5 -3 -2z"/>
<path d="M542 3493 c2 -11 -2 -17 -10 -15 -8 1 -11 -2 -7 -9 5 -8 10 -8 18 0
14 14 18 41 6 41 -6 0 -9 -8 -7 -17z"/>
<path d="M4426 3348 c3 -5 10 -6 15 -3 13 9 11 12 -6 12 -8 0 -12 -4 -9 -9z"/>
<path d="M389 3123 c-13 -15 -12 -15 9 -4 23 12 28 21 13 21 -5 0 -15 -7 -22
-17z"/>
<path d="M315 2770 c-3 -5 -2 -10 4 -10 5 0 13 5 16 10 3 6 2 10 -4 10 -5 0
-13 -4 -16 -10z"/>
<path d="M4596 2542 c-3 -5 1 -9 9 -9 8 0 12 4 9 9 -3 4 -7 8 -9 8 -2 0 -6 -4
-9 -8z"/>
<path d="M283 2533 c9 -2 15 -9 12 -14 -4 -5 -2 -9 4 -9 5 0 12 4 15 9 6 9
-17 22 -37 20 -7 -1 -4 -3 6 -6z"/>
<path d="M294 2452 c3 -5 0 -13 -6 -15 -9 -4 -10 -6 -1 -6 17 -1 25 16 12 25
-7 4 -9 3 -5 -4z"/>
<path d="M4590 2419 c0 -5 5 -7 10 -4 6 3 10 8 10 11 0 2 -4 4 -10 4 -5 0 -10
-5 -10 -11z"/>
<path d="M4590 2361 c0 -6 4 -13 10 -16 6 -3 7 1 4 9 -7 18 -14 21 -14 7z"/>
<path d="M296 2283 c-6 -14 -5 -15 5 -6 7 7 10 15 7 18 -3 3 -9 -2 -12 -12z"/>
<path d="M4594 2255 c-10 -8 -14 -15 -8 -15 6 0 17 7 24 15 16 19 9 19 -16 0z"/>
<path d="M320 2190 c-9 -6 -10 -10 -3 -10 6 0 15 5 18 10 8 12 4 12 -15 0z"/>
<path d="M4586 2168 c3 -5 10 -6 15 -3 13 9 11 12 -6 12 -8 0 -12 -4 -9 -9z"/>
<path d="M310 2162 c0 -6 -8 -9 -17 -6 -15 5 -16 4 -3 -5 16 -11 40 3 27 16
-4 3 -7 1 -7 -5z"/>
<path d="M274 2049 c-4 -7 -3 -10 2 -7 10 7 36 -17 27 -25 -2 -3 2 -4 11 -3 9
1 16 5 16 9 0 4 -2 6 -4 5 -2 -2 -13 5 -24 15 -15 14 -22 15 -28 6z"/>
<path d="M350 2005 c0 -8 4 -15 10 -15 5 0 7 7 4 15 -4 8 -8 15 -10 15 -2 0
-4 -7 -4 -15z"/>
<path d="M4547 1939 c7 -7 15 -10 18 -7 3 3 -2 9 -12 12 -14 6 -15 5 -6 -5z"/>
<path d="M4395 1539 c-3 -4 2 -6 10 -5 21 3 28 13 10 13 -9 0 -18 -4 -20 -8z"/>
<path d="M4367 1479 c7 -7 15 -10 18 -7 3 3 -2 9 -12 12 -14 6 -15 5 -6 -5z"/>
<path d="M536 1443 c-6 -14 -5 -15 5 -6 7 7 10 15 7 18 -3 3 -9 -2 -12 -12z"/>
<path d="M659 1293 c-13 -16 -12 -17 4 -4 9 7 17 15 17 17 0 8 -8 3 -21 -13z"/>
<path d="M695 1271 c-6 -11 13 -26 22 -17 4 3 0 6 -8 6 -11 0 -11 2 1 10 9 6
10 10 3 10 -6 0 -14 -4 -18 -9z"/>
<path d="M730 1181 c0 -6 4 -13 10 -16 6 -3 7 1 4 9 -7 18 -14 21 -14 7z"/>
<path d="M4145 1170 c-3 -5 -1 -10 4 -10 6 0 11 5 11 10 0 6 -2 10 -4 10 -3 0
-8 -4 -11 -10z"/>
<path d="M864 1019 c-4 -7 -3 -10 4 -5 6 3 15 -2 21 -11 5 -10 12 -15 15 -12
4 3 -2 14 -13 23 -14 13 -21 14 -27 5z"/>
<path d="M970 900 c0 -5 5 -10 11 -10 5 0 7 5 4 10 -3 6 -8 10 -11 10 -2 0 -4
-4 -4 -10z"/>
<path d="M1050 851 c0 -5 5 -13 10 -16 6 -3 10 -2 10 4 0 5 -4 13 -10 16 -5 3
-10 2 -10 -4z"/>
<path d="M1106 829 c3 -5 10 -7 15 -4 5 4 9 1 9 -4 0 -6 8 -11 18 -11 15 1 15
2 -3 12 -25 15 -47 19 -39 7z"/>
<path d="M1141 764 c0 -11 3 -14 6 -6 3 7 2 16 -1 19 -3 4 -6 -2 -5 -13z"/>
<path d="M3417 593 c-4 -6 0 -13 8 -17 8 -3 17 0 21 6 4 6 3 8 -4 4 -5 -3 -12
-1 -14 6 -3 8 -6 9 -11 1z"/>
<path d="M3405 560 c-3 -5 -1 -10 5 -10 6 0 8 -5 4 -12 -4 -7 -3 -8 4 -4 6 4
9 13 5 21 -6 18 -10 19 -18 5z"/>
<path d="M1433 544 c0 -8 4 -14 9 -14 4 0 8 5 8 11 0 8 6 7 18 -2 14 -11 15
-11 5 1 -17 19 -40 21 -40 4z"/>
<path d="M1491 545 c0 -5 4 -17 9 -25 6 -10 10 -11 10 -2 0 6 5 12 11 12 5 0
8 -4 5 -8 -3 -5 1 -9 9 -9 11 0 12 3 3 14 -6 8 -17 12 -24 9 -7 -3 -15 0 -18
7 -2 7 -5 8 -5 2z"/>
<path d="M3136 433 c-3 -4 -6 -11 -6 -17 0 -6 5 -4 10 4 6 10 10 11 10 3 0 -7
5 -13 10 -13 6 0 10 4 10 9 0 11 -26 22 -34 14z"/>
<path d="M3065 401 c-3 -5 -2 -12 3 -15 5 -3 9 1 9 9 0 17 -3 19 -12 6z"/>
<path d="M2114 379 c-4 -7 -3 -9 4 -5 6 3 13 -2 15 -11 4 -16 5 -16 6 -1 1 21
-15 32 -25 17z"/>
<path d="M2754 378 c-4 -7 -4 -10 1 -6 4 4 15 2 24 -5 14 -11 14 -10 2 6 -16
20 -18 21 -27 5z"/>
<path d="M2314 329 c-4 -7 -3 -9 4 -5 5 3 13 0 15 -6 4 -9 6 -10 6 -1 1 17
-16 25 -25 12z"/>
<path d="M2455 331 c-3 -5 -1 -12 5 -16 5 -3 10 1 10 9 0 18 -6 21 -15 7z"/>
<path d="M2535 331 c-3 -5 -1 -12 5 -16 5 -3 10 1 10 9 0 18 -6 21 -15 7z"/>
<path d="M2915 129 c-4 -6 -5 -12 -2 -15 2 -3 7 2 10 11 7 17 1 20 -8 4z"/>
<path d="M1145 101 c11 -14 14 -21 7 -17 -7 4 -15 1 -18 -8 -3 -9 -11 -13 -17
-9 -6 3 -7 1 -3 -6 4 -6 12 -9 17 -6 5 4 9 2 9 -4 0 -5 -6 -12 -12 -14 -8 -3
-6 -6 5 -6 9 -1 17 -6 17 -12 0 -5 -4 -8 -9 -4 -5 3 -12 2 -15 -3 -2 -4 9 -8
25 -7 16 0 29 3 29 7 0 4 7 5 15 2 8 -4 15 -1 15 5 0 6 -5 11 -11 11 -5 0 -7
5 -4 10 4 6 11 8 16 5 5 -3 6 1 3 9 -3 9 -11 13 -18 9 -6 -4 -5 1 3 10 14 18
2 24 -15 7 -7 -7 -11 -6 -11 4 0 8 4 13 9 10 4 -3 8 -1 8 4 0 6 -7 13 -16 16
-8 3 -12 2 -9 -4 9 -14 -8 -12 -25 3 -8 6 -6 1 5 -12z"/>
</g>
</svg>
